<svg width="389" height="462" viewBox="0 0 389 462" fill="none" xmlns="http://www.w3.org/2000/svg">
<path fill-rule="evenodd" clip-rule="evenodd" d="M83.9023 455.625C99.1324 469.226 121.539 458.556 132.362 441.241C146.921 417.948 169.466 403 194.773 403C219.899 403 242.302 417.735 256.871 440.741C267.807 458.011 290.298 468.583 305.47 454.884C355.538 409.675 388.273 334.764 388.273 250C388.273 243.069 382.498 237.709 375.61 236.937C355.712 234.707 338.258 226.446 331.266 211.451C322.182 191.971 330.381 169.463 348.62 150.371C358.21 140.333 363.069 125.802 356.79 113.42C322.158 45.1273 262.305 0 194.273 0C87.1302 0 0.273438 111.929 0.273438 250C0.273438 335.229 33.369 410.496 83.9023 455.625Z" fill="#CBB6FF"/>
</svg>
